<?xml version="1.0" standalone="no"?>
<!DOCTYPE svg PUBLIC "-//W3C//DTD SVG 20010904//EN"
 "http://www.w3.org/TR/2001/REC-SVG-20010904/DTD/svg10.dtd">
<svg version="1.0" xmlns="http://www.w3.org/2000/svg"
 width="1024.000000pt" height="1024.000000pt" viewBox="0 0 1024.000000 1024.000000"
 preserveAspectRatio="xMidYMid meet">
<metadata>
Created by potrace 1.14, written by Peter Selinger 2001-2017
</metadata>
<g transform="translate(0.000000,1024.000000) scale(0.100000,-0.100000)"
fill="#000000" stroke="none">
<path d="M710 5370 l0 -3950 610 0 610 0 0 1651 c0 940 4 1649 9 1647 14 -5
171 -155 171 -163 0 -4 18 -25 40 -46 22 -22 40 -44 40 -51 0 -6 20 -31 45
-55 25 -23 45 -45 45 -49 0 -3 20 -26 45 -51 25 -24 45 -49 45 -54 0 -6 10
-20 23 -32 13 -12 26 -30 30 -39 3 -10 11 -18 16 -18 5 0 13 -10 16 -22 4 -11
18 -31 31 -43 13 -12 24 -27 24 -33 0 -6 14 -24 30 -40 17 -17 30 -34 30 -38
0 -4 20 -27 45 -51 25 -23 45 -47 45 -53 0 -5 4 -10 9 -10 5 0 13 -10 16 -22
4 -11 18 -31 31 -43 13 -12 24 -26 24 -30 0 -4 16 -24 35 -44 60 -61 65 -67
65 -79 0 -7 4 -12 9 -12 5 0 13 -10 17 -22 4 -12 20 -33 35 -47 16 -14 29 -30
29 -35 0 -5 11 -19 25 -32 14 -13 25 -27 25 -33 0 -12 58 -71 71 -71 5 0 11
-11 15 -24 3 -14 12 -27 20 -30 8 -3 14 -12 14 -21 0 -9 11 -26 25 -39 14 -13
25 -27 25 -31 0 -4 16 -23 35 -42 19 -19 35 -38 35 -44 0 -5 11 -20 25 -33 14
-13 25 -27 25 -31 0 -5 20 -28 45 -52 25 -23 45 -47 45 -51 0 -5 9 -19 20 -32
11 -13 20 -29 20 -36 0 -7 9 -16 20 -19 11 -3 23 -17 26 -31 3 -13 10 -24 15
-24 5 0 13 -8 16 -17 4 -10 26 -37 50 -61 24 -24 43 -48 43 -53 0 -6 11 -20
25 -33 14 -13 25 -27 25 -32 0 -5 9 -17 20 -27 11 -9 20 -23 20 -31 0 -8 7
-16 15 -20 8 -3 15 -12 15 -21 0 -8 18 -32 40 -54 22 -21 40 -43 40 -48 0 -6
11 -19 25 -29 14 -10 25 -23 25 -29 0 -6 13 -22 29 -36 15 -14 32 -36 36 -49
4 -13 21 -37 36 -53 16 -16 29 -34 29 -42 0 -7 11 -16 25 -19 15 -4 25 -14 25
-24 0 -10 13 -29 30 -42 16 -14 29 -30 30 -37 0 -6 14 -25 30 -41 17 -17 30
-35 30 -42 0 -6 6 -13 14 -16 8 -3 17 -16 20 -29 3 -13 15 -26 26 -30 10 -3
22 -15 26 -27 3 -12 17 -31 30 -43 13 -12 24 -26 24 -30 0 -9 7 -17 65 -76 19
-20 35 -41 35 -48 0 -6 4 -11 9 -11 5 0 13 -10 16 -22 4 -11 18 -31 31 -43 13
-12 24 -26 24 -30 0 -4 16 -23 35 -42 19 -19 35 -38 35 -44 0 -11 49 -59 60
-59 4 0 11 -11 14 -25 l6 -25 1560 0 c868 0 1560 4 1560 9 0 4 54 10 121 13
67 3 124 10 128 16 3 5 41 13 84 17 42 4 77 11 77 15 0 4 29 11 65 15 36 3 65
10 65 15 0 4 18 10 40 14 22 3 40 11 40 16 0 6 13 10 29 10 16 0 36 6 43 14 8
7 29 17 46 21 18 3 32 10 32 15 0 4 12 11 26 14 15 4 33 14 41 21 8 8 23 15
34 15 10 0 19 4 19 9 0 5 14 12 30 16 17 4 30 11 30 16 0 5 6 9 14 9 8 0 21 6
28 14 8 7 24 17 36 20 12 4 22 12 22 17 0 5 7 9 15 9 9 0 18 7 21 15 4 8 12
15 20 15 8 0 14 4 14 10 0 5 11 12 24 16 14 3 27 12 30 20 3 8 11 14 17 14 6
0 36 25 65 55 30 30 58 55 63 55 7 0 93 77 159 142 37 36 82 91 82 99 0 5 18
26 40 48 22 21 40 43 40 48 0 5 13 20 29 34 15 14 31 34 35 46 4 12 13 24 21
27 8 3 15 12 15 21 0 8 4 15 10 15 5 0 12 11 16 25 3 13 14 27 25 30 11 4 21
19 25 40 3 18 12 36 20 39 8 3 14 12 14 21 0 8 4 15 9 15 5 0 12 12 15 26 4
15 14 33 21 41 8 8 15 23 15 34 0 10 4 19 10 19 5 0 12 11 16 25 3 14 10 25
14 25 5 0 11 13 15 30 4 16 11 30 15 30 5 0 12 16 16 35 3 19 10 35 14 35 4 0
10 18 14 40 3 22 11 40 16 40 5 0 13 18 16 40 4 22 10 40 14 40 4 0 10 19 13
42 3 24 10 44 16 46 6 2 13 26 17 53 4 27 10 49 14 49 4 0 11 29 15 65 3 36
11 65 16 65 5 0 9 14 9 30 0 17 4 30 9 30 5 0 12 48 16 108 4 60 12 110 19
114 8 5 11 124 11 413 0 289 -3 408 -11 413 -7 4 -15 54 -19 115 -4 59 -11
107 -16 107 -5 0 -9 14 -9 30 0 17 -4 30 -9 30 -5 0 -12 29 -16 65 -3 36 -10
65 -15 65 -4 0 -10 27 -14 60 -4 33 -11 60 -15 60 -5 0 -12 16 -15 35 -4 19
-11 35 -15 35 -5 0 -11 19 -14 41 -3 23 -10 45 -15 48 -6 3 -13 27 -17 54 -4
26 -11 47 -16 47 -4 0 -11 16 -15 35 -3 19 -10 35 -15 35 -5 0 -9 6 -9 14 0 8
-6 21 -14 28 -7 8 -17 29 -21 46 -3 18 -11 32 -16 32 -5 0 -11 11 -15 25 -3
14 -10 25 -14 25 -5 0 -11 14 -15 30 -4 17 -11 30 -16 30 -5 0 -9 7 -9 15 0 8
-9 23 -20 32 -11 10 -20 23 -20 30 0 7 -4 13 -10 13 -5 0 -10 7 -10 15 0 8 -4
15 -10 15 -5 0 -10 7 -10 15 0 8 -9 23 -20 32 -11 10 -20 23 -20 30 0 7 -4 13
-10 13 -5 0 -12 11 -16 25 -3 14 -10 25 -15 25 -5 0 -9 5 -9 12 0 6 -20 31
-45 55 -25 23 -45 48 -45 54 0 7 -16 27 -35 46 -19 19 -35 38 -35 43 0 6 -25
33 -55 62 -31 29 -91 88 -134 131 -43 42 -83 77 -88 77 -5 0 -15 9 -23 20 -8
11 -19 20 -25 20 -6 0 -18 9 -28 20 -9 11 -23 20 -31 20 -8 0 -16 7 -20 15 -3
8 -10 15 -16 15 -7 0 -25 14 -42 30 -16 17 -36 30 -44 30 -8 0 -14 4 -14 10 0
5 -11 12 -25 16 -14 3 -25 10 -25 14 0 5 -13 11 -29 15 -16 3 -32 13 -35 21
-3 8 -12 14 -21 14 -8 0 -15 4 -15 10 0 5 -11 12 -24 16 -14 3 -27 12 -30 20
-3 8 -17 14 -31 14 -14 0 -25 4 -25 9 0 5 -16 12 -35 15 -19 4 -35 11 -35 15
0 5 -16 12 -35 15 -19 4 -35 11 -35 16 0 6 -9 10 -20 10 -11 0 -20 4 -20 9 0
5 -13 12 -30 16 -16 4 -30 11 -30 16 0 5 -18 12 -40 15 -22 4 -40 10 -40 15 0
4 -20 11 -45 15 -25 3 -45 10 -45 14 0 4 -27 11 -60 15 -33 4 -60 11 -60 15 0
5 -30 12 -67 16 -38 3 -71 11 -74 15 -3 5 -48 12 -100 15 -52 4 -96 11 -99 15
-4 5 -59 12 -123 15 -64 4 -117 11 -117 16 0 4 -526 8 -1170 8 l-1170 0 0
-1574 c0 -1135 3 -1575 11 -1578 6 -2 13 -25 16 -51 3 -26 9 -47 13 -47 4 0
10 -18 14 -40 3 -22 10 -40 15 -40 5 0 12 -20 15 -45 4 -25 11 -45 16 -45 6 0
13 -18 16 -40 4 -22 10 -40 15 -40 5 0 9 -7 9 -15 0 -9 6 -18 14 -21 8 -3 17
-16 20 -30 4 -13 11 -24 16 -24 6 0 10 -5 10 -12 0 -6 7 -18 15 -27 8 -9 33
-35 55 -58 22 -24 47 -43 55 -43 9 0 18 -7 21 -15 4 -8 12 -15 19 -15 8 0 21
-8 31 -17 20 -20 -5 -19 487 -15 l307 2 0 1340 0 1340 475 0 c261 0 475 -4
475 -9 0 -4 42 -11 92 -15 51 -4 95 -11 98 -15 3 -5 50 -11 105 -15 55 -4 102
-12 106 -17 3 -5 29 -12 57 -16 29 -3 52 -9 52 -13 0 -4 19 -10 41 -13 23 -3
45 -10 48 -15 3 -5 21 -13 39 -17 17 -3 32 -10 32 -14 0 -5 19 -11 42 -14 24
-3 44 -11 46 -16 2 -6 21 -14 43 -17 21 -4 39 -10 39 -14 0 -4 11 -11 25 -14
14 -4 25 -11 25 -16 0 -6 9 -10 20 -10 11 0 20 -7 20 -15 0 -8 7 -15 15 -15 8
0 15 -4 15 -9 0 -5 12 -12 27 -16 15 -3 44 -24 65 -46 21 -21 42 -39 47 -39
10 0 171 -156 171 -166 0 -4 16 -22 35 -41 19 -19 35 -40 35 -48 0 -8 5 -15
10 -15 6 0 10 -7 10 -15 0 -8 9 -23 20 -32 11 -10 20 -23 20 -30 0 -7 4 -13 9
-13 5 0 12 -13 16 -30 4 -16 10 -30 15 -30 5 0 11 -13 15 -30 4 -16 10 -30 15
-30 5 0 11 -13 15 -30 4 -16 10 -30 15 -30 4 0 10 -18 14 -40 3 -22 10 -40 15
-40 5 0 11 -18 15 -40 3 -22 10 -40 16 -40 5 0 12 -16 16 -35 3 -19 10 -35 15
-35 5 0 9 -13 9 -30 0 -16 4 -30 9 -30 4 0 12 -37 16 -82 4 -46 12 -86 18 -90
6 -3 12 -60 15 -137 3 -72 9 -131 13 -131 5 0 9 -70 9 -155 0 -85 -4 -155 -9
-155 -5 0 -12 -54 -16 -120 -4 -66 -10 -120 -15 -120 -4 0 -11 -25 -15 -55 -3
-30 -11 -55 -16 -55 -5 0 -9 -13 -9 -30 0 -16 -4 -30 -9 -30 -6 0 -13 -20 -17
-45 -3 -25 -10 -45 -14 -45 -5 0 -11 -13 -15 -30 -4 -16 -10 -30 -15 -30 -5 0
-11 -13 -15 -30 -4 -16 -11 -30 -16 -30 -5 0 -11 -11 -15 -25 -3 -14 -10 -25
-15 -25 -5 0 -9 -6 -9 -13 0 -7 -9 -20 -20 -30 -11 -9 -20 -24 -20 -32 0 -8
-4 -15 -10 -15 -5 0 -10 -6 -10 -13 0 -7 -9 -20 -20 -30 -11 -9 -20 -23 -20
-31 0 -8 -9 -18 -21 -21 -24 -8 -59 -40 -59 -55 0 -5 -6 -10 -14 -10 -8 0 -17
-9 -21 -19 -3 -11 -15 -23 -26 -26 -10 -4 -19 -11 -19 -16 0 -5 -5 -9 -12 -9
-6 0 -31 -20 -54 -45 -24 -24 -55 -47 -69 -51 -14 -3 -25 -10 -25 -14 0 -5
-13 -11 -30 -15 -16 -4 -30 -10 -30 -15 0 -5 -13 -11 -30 -15 -16 -4 -30 -10
-30 -15 0 -5 -13 -11 -30 -15 -16 -4 -30 -10 -30 -15 0 -4 -18 -11 -40 -15
-22 -4 -40 -10 -40 -15 0 -4 -20 -11 -45 -14 -25 -4 -45 -11 -45 -16 0 -5 -25
-12 -55 -15 -30 -4 -55 -11 -55 -15 0 -4 -33 -10 -72 -14 -40 -4 -74 -11 -76
-16 -2 -6 -23 -10 -47 -10 -24 0 -45 -4 -47 -9 -1 -5 -72 -13 -155 -17 -84 -4
-153 -11 -153 -15 0 -5 -453 -9 -1010 -9 -941 0 -1011 1 -1030 17 -11 10 -20
25 -20 34 0 9 -7 19 -15 23 -8 3 -15 10 -15 16 0 7 -20 32 -45 57 -25 24 -45
51 -45 59 0 8 -7 14 -15 14 -8 0 -15 6 -15 14 0 8 -9 18 -20 21 -11 3 -20 13
-20 21 0 8 -9 22 -20 31 -11 10 -20 22 -20 27 0 5 -11 19 -25 32 -14 13 -25
28 -25 33 0 6 -20 31 -45 57 -25 25 -45 49 -45 54 0 5 -13 21 -28 37 -16 15
-31 36 -35 46 -3 9 -11 17 -16 17 -5 0 -13 9 -16 21 -4 11 -25 38 -46 59 -21
21 -39 43 -39 49 0 6 -11 13 -25 17 -14 3 -25 12 -25 19 0 8 -6 20 -14 27 -7
8 -17 24 -20 36 -4 12 -12 22 -17 22 -5 0 -9 7 -9 15 0 9 -7 18 -15 21 -8 3
-17 15 -21 26 -3 11 -26 39 -50 62 -24 24 -44 46 -44 51 0 4 -11 18 -25 31
-14 13 -25 27 -25 33 0 5 -13 23 -30 39 -16 17 -30 35 -30 41 0 6 -7 11 -15
11 -8 0 -15 5 -15 11 0 6 -13 24 -30 41 -16 16 -30 34 -30 39 0 6 -10 20 -23
32 -13 12 -26 30 -30 40 -3 9 -11 17 -16 17 -5 0 -13 9 -16 21 -4 11 -30 44
-59 72 -29 29 -55 60 -59 70 -3 9 -11 17 -17 17 -5 0 -10 9 -10 20 0 11 -7 23
-15 26 -8 3 -17 15 -21 26 -7 22 -51 68 -65 68 -5 0 -9 7 -9 15 0 8 -16 29
-35 48 -19 19 -35 38 -35 42 0 4 -11 18 -25 31 -14 13 -25 27 -25 33 0 5 -13
23 -30 39 -16 17 -30 35 -30 40 0 6 -13 24 -30 40 -16 17 -30 34 -30 39 0 5
-13 20 -29 34 -15 14 -31 34 -35 46 -4 12 -13 24 -21 27 -8 3 -15 11 -15 18 0
7 -11 22 -25 32 -14 10 -25 25 -25 32 0 8 -7 14 -15 14 -8 0 -15 5 -15 11 0 6
-13 24 -30 41 -16 16 -30 34 -30 40 0 6 -11 21 -25 34 -14 13 -25 27 -25 33 0
5 -13 23 -30 39 -16 17 -30 35 -30 41 0 6 -7 11 -15 11 -8 0 -15 6 -15 13 0 7
-9 20 -20 30 -11 9 -20 24 -20 32 0 8 -4 15 -10 15 -5 0 -10 5 -10 12 0 6 -18
29 -40 49 -22 21 -40 42 -40 48 0 6 -7 11 -15 11 -8 0 -15 7 -15 15 0 8 -9 23
-20 32 -11 10 -20 22 -20 27 0 5 -11 19 -24 31 -13 12 -27 31 -30 43 -4 11
-13 23 -21 26 -19 7 -19 55 -1 62 8 3 18 19 21 35 4 16 10 29 15 29 4 0 11 11
14 25 4 14 11 25 16 25 6 0 10 7 10 15 0 8 7 15 15 15 8 0 15 6 15 14 0 16 56
76 70 76 5 0 12 9 15 21 4 11 24 37 44 57 21 21 40 45 44 55 3 9 11 17 17 17
5 0 10 7 10 15 0 8 9 23 20 32 11 10 20 21 20 26 0 5 19 28 43 52 55 58 67 72
67 82 0 5 13 20 29 34 15 14 31 35 35 47 4 12 12 22 17 22 5 0 9 5 9 10 0 6
20 30 45 53 25 24 45 47 45 52 0 4 11 18 25 31 14 13 25 27 25 33 0 5 27 37
59 70 33 34 63 70 66 81 4 11 11 20 16 20 5 0 9 7 9 15 0 9 7 18 15 21 8 4 15
12 15 20 0 8 9 22 20 31 11 10 20 21 20 26 0 12 27 37 39 37 6 0 11 6 11 13 1
6 14 23 30 37 17 13 30 30 30 37 0 7 4 13 9 13 5 0 13 10 17 23 4 12 17 32 30
44 13 12 24 27 24 33 0 5 6 10 14 10 8 0 18 10 22 22 4 12 20 33 35 47 16 14
29 31 29 38 0 7 7 13 15 13 8 0 15 7 15 15 0 8 4 15 9 15 5 0 13 10 16 22 4
11 18 31 31 43 13 12 24 25 24 29 0 3 18 24 39 45 21 21 42 48 46 60 3 12 11
21 16 21 5 0 9 7 9 15 0 8 7 15 15 15 9 0 19 8 22 18 4 9 19 30 35 45 15 16
28 34 28 40 1 7 14 23 30 37 17 13 30 28 30 33 0 6 11 20 25 33 14 13 25 28
25 34 0 6 25 35 55 65 30 29 55 57 55 62 0 5 13 20 29 34 15 14 31 35 35 47 4
12 12 22 17 22 5 0 9 5 9 12 0 6 20 31 45 55 25 23 45 47 45 51 0 5 16 26 35
46 19 21 35 43 35 49 1 7 14 23 30 37 17 13 30 28 30 32 0 5 23 30 50 57 28
27 50 53 50 58 0 4 13 20 29 34 15 14 31 35 35 47 4 12 12 22 17 22 5 0 9 6 9
13 0 7 8 20 18 29 27 26 42 46 42 58 0 5 7 10 15 10 9 0 19 8 22 18 4 9 26 36
50 60 24 24 43 50 43 57 0 8 9 17 20 20 11 3 20 13 20 21 0 8 9 22 20 31 11
10 20 21 20 26 0 5 20 30 45 55 72 75 75 78 75 87 0 4 11 18 25 31 14 13 25
27 25 33 0 5 20 30 45 54 25 25 45 49 45 54 0 5 9 16 20 26 11 9 20 23 20 31
0 8 9 18 20 21 11 3 20 12 20 19 0 7 16 30 35 50 19 21 35 44 35 52 0 8 7 14
15 14 8 0 15 5 15 10 0 6 11 21 25 34 14 13 25 27 25 32 0 5 9 17 20 27 11 9
20 24 20 32 0 8 7 15 15 15 8 0 15 6 15 14 0 8 7 16 15 20 8 3 15 10 15 16 0
6 8 19 17 28 16 16 -29 17 -693 20 -390 1 -719 0 -731 -3 -13 -3 -23 -12 -23
-19 0 -8 -13 -28 -30 -44 -16 -17 -30 -34 -30 -39 0 -5 -9 -16 -20 -26 -11 -9
-20 -23 -20 -31 0 -8 -7 -16 -15 -20 -8 -3 -15 -10 -15 -16 0 -7 -19 -31 -42
-55 -55 -57 -63 -66 -71 -87 -3 -10 -11 -18 -16 -18 -5 0 -13 -10 -17 -22 -4
-12 -20 -33 -35 -47 -16 -14 -29 -29 -29 -34 0 -5 -16 -23 -35 -41 -19 -19
-35 -37 -35 -42 0 -5 -13 -21 -29 -35 -15 -14 -31 -34 -35 -46 -4 -12 -13 -24
-21 -27 -8 -3 -15 -14 -15 -25 0 -10 -7 -21 -15 -25 -8 -3 -15 -12 -15 -21 0
-8 -5 -15 -11 -15 -13 0 -33 -20 -42 -42 -3 -10 -11 -18 -16 -18 -5 0 -13 -10
-16 -22 -4 -11 -18 -31 -31 -43 -13 -12 -24 -26 -24 -31 0 -4 -17 -24 -38 -43
-21 -20 -41 -44 -45 -53 -3 -10 -11 -18 -16 -18 -5 0 -13 -10 -17 -22 -4 -13
-17 -32 -29 -44 -13 -11 -26 -31 -30 -42 -3 -12 -11 -22 -16 -22 -5 0 -13 -8
-16 -17 -4 -10 -19 -31 -35 -46 -15 -16 -28 -35 -28 -43 0 -7 -11 -16 -25 -20
-14 -3 -25 -12 -25 -20 0 -8 -9 -22 -20 -31 -11 -10 -20 -21 -20 -26 0 -5 -13
-22 -30 -39 -16 -16 -30 -35 -30 -42 0 -6 -9 -18 -20 -26 -11 -8 -20 -19 -20
-24 0 -5 -20 -28 -44 -52 -24 -23 -47 -51 -51 -63 -3 -11 -11 -21 -16 -21 -5
0 -13 -8 -16 -17 -4 -10 -26 -37 -50 -61 -24 -24 -43 -48 -43 -53 0 -6 -11
-20 -24 -32 -13 -12 -27 -33 -31 -47 -4 -13 -21 -37 -36 -53 -16 -16 -29 -35
-29 -43 0 -8 -4 -14 -9 -14 -14 0 -89 -77 -96 -99 -3 -12 -11 -21 -16 -21 -5
0 -9 -5 -9 -12 0 -6 -20 -31 -45 -55 -25 -23 -45 -47 -45 -51 0 -5 -9 -19 -20
-32 -11 -13 -20 -29 -20 -37 0 -7 -7 -13 -15 -13 -8 0 -15 -6 -15 -14 0 -8 -7
-16 -15 -20 -8 -3 -15 -11 -15 -17 0 -6 -11 -22 -24 -34 -13 -12 -27 -32 -31
-45 -9 -28 -29 -50 -44 -50 -6 0 -11 -5 -11 -10 0 -6 -18 -27 -40 -49 -22 -21
-40 -43 -40 -48 0 -5 -8 -16 -17 -25 -26 -25 -43 -46 -43 -55 0 -5 -9 -16 -20
-26 -11 -9 -20 -24 -20 -32 0 -8 -4 -15 -9 -15 -5 0 -11 -9 -14 -20 -3 -11
-12 -20 -21 -20 -9 0 -16 -5 -16 -11 0 -6 -13 -24 -30 -41 -17 -16 -30 -34
-30 -39 0 -6 -11 -20 -25 -33 -14 -13 -25 -26 -25 -30 0 -3 -17 -23 -39 -44
-21 -20 -41 -47 -45 -59 -4 -11 -13 -24 -21 -27 -8 -3 -15 -12 -15 -21 0 -8
-4 -15 -10 -15 -5 0 -12 -11 -16 -24 -3 -14 -12 -27 -20 -30 -8 -3 -14 -10
-14 -16 0 -12 -153 -170 -164 -170 -3 0 -6 740 -6 1645 l0 1645 -610 0 -610 0
0 -3950z"/>
<path d="M0 380 l0 -380 5120 0 5120 0 0 380 0 380 -5120 0 -5120 0 0 -380z"/>
</g>
</svg>
